<svg id="visual" viewBox="0 0 900 600" width="900" height="600" xmlns="http://www.w3.org/2000/svg" xmlns:xlink="http://www.w3.org/1999/xlink" version="1.1">
	<path d="M0 43L150 55L300 103L450 97L600 85L750 91L900 109L900 0L750 0L600 0L450 0L300 0L150 0L0 0Z" fill="#aeb618"></path>
	<path d="M0 235L150 241L300 247L450 283L600 247L750 319L900 223L900 107L750 89L600 83L450 95L300 101L150 53L0 41Z" fill="#98a614"></path>
	<path d="M0 409L150 301L300 403L450 367L600 421L750 397L900 427L900 221L750 317L600 245L450 281L300 245L150 239L0 233Z" fill="#839610"></path>
	<path d="M0 451L150 373L300 439L450 415L600 481L750 433L900 457L900 425L750 395L600 419L450 365L300 401L150 299L0 407Z" fill="#6f860c"></path>
	<path d="M0 511L150 427L300 499L450 457L600 529L750 505L900 487L900 455L750 431L600 479L450 413L300 437L150 371L0 449Z" fill="#5c7608"></path>
	<path d="M0 547L150 481L300 553L450 517L600 553L750 529L900 529L900 485L750 503L600 527L450 455L300 497L150 425L0 509Z" fill="#4b6705"></path>
	<path d="M0 601L150 601L300 601L450 601L600 601L750 601L900 601L900 527L750 527L600 551L450 515L300 551L150 479L0 545Z" fill="#3a5803"></path>
</svg>